<svg width="20" height="20" viewBox="0 0 20 20" fill="none" xmlns="http://www.w3.org/2000/svg">
<mask id="mask0" mask-type="alpha" maskUnits="userSpaceOnUse" x="0" y="0" width="20" height="20">
<path fill-rule="evenodd" clip-rule="evenodd" d="M19.9162 15.3181C19.7134 15.7911 18.8563 16.1386 17.2952 16.381C17.2149 16.4894 17.1483 16.9525 17.042 17.3132C16.9788 17.5297 16.8232 17.6583 16.5701 17.6583L16.5585 17.6581C16.193 17.6581 15.8113 17.4899 15.0468 17.4899C14.0148 17.4899 13.6591 17.725 12.8579 18.2909C12.0084 18.8916 11.1937 19.4102 9.97747 19.3571C8.74611 19.4479 7.71969 18.6992 7.14202 18.2908C6.33603 17.721 5.9814 17.4899 4.95365 17.4899C4.21965 17.4899 3.7577 17.6736 3.4419 17.6736C3.12778 17.6736 3.0056 17.482 2.95856 17.3218C2.85338 16.9643 2.7872 16.4944 2.70474 16.3829C1.90011 16.258 0.0856781 15.9415 0.0394524 15.1319C0.02785 14.9213 0.176707 14.7356 0.384861 14.7012C3.09237 14.2555 4.31187 11.4755 4.36257 11.3575C4.36544 11.3506 4.3686 11.3441 4.37179 11.3374C4.51626 11.0442 4.5486 10.7986 4.46762 10.6078C4.27113 10.1449 3.42202 9.97881 3.06478 9.83748C2.14202 9.47305 2.01362 9.05429 2.06821 8.76729C2.16303 8.26783 2.91354 7.96048 3.35233 8.166C3.69937 8.32869 4.0077 8.41102 4.26856 8.41102C4.46397 8.41102 4.58809 8.36417 4.65611 8.32655C4.57661 6.92826 4.3798 4.93005 4.87739 3.81414C6.19151 0.867911 8.97685 0.638961 9.79867 0.638961C9.83541 0.638961 10.1544 0.635498 10.1921 0.635498C12.2212 0.635498 14.1708 1.67752 15.1229 3.81227C15.6201 4.92705 15.4244 6.91702 15.3445 8.32624C15.4061 8.36017 15.514 8.4018 15.6791 8.40947C15.928 8.39834 16.2167 8.31651 16.5378 8.166C16.7746 8.05526 17.0984 8.07024 17.3347 8.16826L17.3358 8.16865C17.7045 8.30036 17.9366 8.56612 17.9424 8.86398C17.9496 9.24324 17.6108 9.57079 16.9355 9.83744C16.8531 9.86993 16.7528 9.90184 16.6462 9.93569C16.265 10.0565 15.689 10.2394 15.5328 10.6077C15.4519 10.7985 15.4839 11.0439 15.6285 11.3372C15.6319 11.3437 15.6349 11.3505 15.6378 11.3572C15.6884 11.4751 16.9068 14.2545 19.6156 14.701C19.8657 14.7422 20.05 15.0075 19.9162 15.3181Z" fill="white"/>
</mask>
<g mask="url(#mask0)">
<rect x="-2" y="-2" width="24" height="24" fill="#D0D0D0"/>
</g>
</svg>
