<svg width="20" height="14" viewBox="0 0 20 14" fill="none" xmlns="http://www.w3.org/2000/svg">
<mask id="mask0" mask-type="alpha" maskUnits="userSpaceOnUse" x="0" y="0" width="20" height="14">
<path fill-rule="evenodd" clip-rule="evenodd" d="M19.0852 2.41947C18.8671 1.59829 18.2246 0.951551 17.4087 0.732071C15.9299 0.333252 9.99999 0.333252 9.99999 0.333252C9.99999 0.333252 4.07013 0.333252 2.59127 0.732071C1.7754 0.951585 1.13283 1.59829 0.914744 2.41947C0.518494 3.9079 0.518494 7.01339 0.518494 7.01339C0.518494 7.01339 0.518494 10.1189 0.914744 11.6073C1.13283 12.4285 1.7754 13.0483 2.59127 13.2678C4.07013 13.6666 9.99999 13.6666 9.99999 13.6666C9.99999 13.6666 15.9298 13.6666 17.4087 13.2678C18.2246 13.0483 18.8671 12.4285 19.0852 11.6073C19.4815 10.1189 19.4815 7.01339 19.4815 7.01339C19.4815 7.01339 19.4815 3.9079 19.0852 2.41947ZM8.06058 9.83294V4.19384L13.0168 7.01346L8.06058 9.83294Z" fill="white"/>
</mask>
<g mask="url(#mask0)">
<rect x="-2" y="-5" width="24" height="24" fill="#D0D0D0"/>
</g>
</svg>
